<svg width="20" height="21" viewBox="0 0 20 21" fill="none" xmlns="http://www.w3.org/2000/svg">
    <path fill-rule="evenodd" clip-rule="evenodd"
        d="M0.0136603 16.5037L0.0307466 16.3714L7.4637 16.3708L7.3753 16.5242C7.0878 17.0225 7.2597 17.6642 7.75744 17.952L8.25784 18.2411L1.54224 18.2422C1.08346 18.2422 0.68853 18.0635 0.385423 17.7189C0.0824755 17.3741 -0.0445716 16.9591 0.0138323 16.5037L0.0136603 16.5037ZM13.8438 20.2632L16.9028 14.9592C15.1671 14.9463 13.7338 14.0864 13.473 12.9648C13.4146 12.8552 13.3816 12.7298 13.3816 12.597C13.3816 12.1726 13.7186 11.8269 14.1392 11.8137C13.9718 12.0512 13.8792 12.3159 13.8792 12.597C13.8792 13.6538 15.2507 14.5106 16.9426 14.5106C17.7599 14.5106 18.5058 14.3129 19.0506 13.9937C20.3165 13.2519 20.3165 11.9421 19.0506 11.2003C18.2189 10.7128 17.0953 10.5915 16.1484 10.7472L16.3676 11.2916C17.1478 11.1897 18.0807 11.2916 18.763 11.6915C19.6544 12.2137 19.6544 12.9804 18.763 13.5027C18.1961 13.835 17.4677 13.9551 16.8176 13.9378L15.5959 10.9031C15.5134 10.6985 15.309 10.5803 15.0907 10.6111L11.3488 11.1408C11.1996 11.1619 11.0805 11.2426 11.0053 11.373L7.86928 16.8099C7.73897 17.036 7.81668 17.3268 8.04252 17.4572L13.1975 20.4369C13.4233 20.5672 13.7137 20.4892 13.844 20.2633L13.8438 20.2632ZM14.699 12.0241C15.0307 12.3345 15.0277 12.8681 14.6925 13.1749C14.3673 12.8087 14.3705 12.3866 14.699 12.0241ZM9.98946 15.9572L13.5208 17.9983C13.5984 18.0432 13.6254 18.1435 13.5804 18.2214L13.2537 18.788C13.2088 18.8658 13.1087 18.8927 13.0308 18.8477L9.49945 16.8066C9.42174 16.7617 9.39485 16.6614 9.43987 16.5835L9.76659 16.0169C9.81146 15.9394 9.91175 15.9125 9.98946 15.9572ZM14.3145 16.9476C14.4506 17.0258 14.4974 17.1999 14.4193 17.3361C14.3411 17.4724 14.1673 17.5192 14.0313 17.441L10.2175 15.2366C10.0814 15.1583 10.0346 14.9844 10.1127 14.8482C10.1909 14.7119 10.3646 14.6651 10.5007 14.7433L14.3145 16.9476ZM14.8045 16.0982C14.9406 16.1765 14.9874 16.3505 14.9093 16.4868C14.8311 16.623 14.6573 16.6699 14.5213 16.5916L10.7075 14.3872C10.5714 14.309 10.5246 14.1349 10.6027 13.9988C10.6809 13.8626 10.8547 13.8157 10.9908 13.894L14.8045 16.0982ZM15.2954 15.2489C15.4315 15.3277 15.478 15.5022 15.3991 15.6384C15.3204 15.7747 15.1461 15.8212 15.01 15.7423L11.1962 13.5376C11.0601 13.4588 11.0136 13.2843 11.0925 13.1482C11.1712 13.0119 11.3455 12.9653 11.4816 13.0443L15.2954 15.2489ZM9.55124 5.66678V4.18217C9.55124 2.7377 8.36887 1.55398 6.92602 1.55398C5.48317 1.55398 4.30079 2.7377 4.30079 4.18217V5.66785L3.24796 5.668V4.18217C3.24796 2.15597 4.90206 0.5 6.92598 0.5C8.9499 0.5 10.604 2.15597 10.604 4.18217V5.66647L9.55124 5.66678ZM6.92602 9.90113C8.51313 8.31222 10.2525 10.4353 9.03149 11.6577L6.92602 13.7655L4.82055 11.6577C3.59941 10.4354 5.33878 8.31237 6.92602 9.90113ZM0.103159 15.8022L0.174476 15.2459L8.11216 15.245L7.79123 15.8016L0.103159 15.8022ZM0.247577 14.6765L1.31391 6.35783C1.36353 5.9708 1.68788 5.68491 2.07774 5.68491L3.24795 5.68476V7.93319C3.24795 8.22428 3.48374 8.46005 3.77422 8.46005C4.06498 8.46005 4.30048 8.22414 4.30048 7.93319L4.30063 5.68445L9.55109 5.68341V7.93302C9.55109 8.22412 9.78673 8.45988 10.0773 8.45988C10.3681 8.45988 10.6036 8.22397 10.6036 7.93302L10.6038 5.68311L11.7738 5.68296C12.1635 5.68296 12.4882 5.96885 12.5381 6.35589L13.0465 10.3229L11.2682 10.5746C10.9455 10.6203 10.6731 10.8043 10.5102 11.087L8.44048 14.6758L0.247577 14.6765Z"
        fill="#DDDDDD" />
</svg>