<svg width="20" height="21" viewBox="0 0 20 21" fill="none" xmlns="http://www.w3.org/2000/svg">
    <path
        d="M9.25043 2.74886V9.93023C9.25127 10.527 9.0145 11.0994 8.59264 11.5213C8.17077 11.9432 7.59832 12.18 7.00157 12.1791H2.24886C1.65233 12.1799 1.07988 11.9432 0.657793 11.5213C0.235923 11.0994 -0.000641227 10.527 1.30547e-06 9.93023V2.74886C-0.000626181 2.15233 0.235928 1.57988 0.657793 1.15779C1.07987 0.735923 1.65233 0.499359 2.24886 0.500001H7.00157C7.59832 0.499374 8.17076 0.735929 8.59264 1.15779C9.01451 1.57987 9.25129 2.15233 9.25043 2.74886ZM7.00157 13.6783H2.24886C1.65233 13.6775 1.07988 13.9143 0.657793 14.3361C0.235923 14.758 -0.000641227 15.3305 1.30547e-06 15.9272V18.2511C-0.000626181 18.8477 0.235928 19.4201 0.657793 19.8422C1.07987 20.2641 1.65233 20.5006 2.24886 20.5H7.00157C7.59832 20.5006 8.17076 20.2641 8.59264 19.8422C9.01451 19.4201 9.25129 18.8477 9.25043 18.2511V15.9272C9.25127 15.3305 9.0145 14.758 8.59264 14.3361C8.17077 13.9143 7.59832 13.6775 7.00157 13.6783ZM17.7511 0.500001H12.9984C12.4017 0.499374 11.8292 0.735929 11.4074 1.15779C10.9855 1.57987 10.7487 2.15233 10.7496 2.74886V18.251C10.7487 18.8476 10.9855 19.42 11.4074 19.8421C11.8292 20.264 12.4017 20.5005 12.9984 20.4999H17.7511C18.3477 20.5005 18.9201 20.264 19.3422 19.8421C19.7641 19.42 20.0006 18.8476 20 18.251V2.74886C20.0006 2.15233 19.7641 1.57988 19.3422 1.15779C18.9201 0.735923 18.3477 0.499359 17.7511 0.500001Z"
        fill="#EEE" />
</svg>