<svg width="20" height="21" viewBox="0 0 20 21" fill="none"
    xmlns="http://www.w3.org/2000/svg">
    <path
        d="M20 10.4998L17.3531 8.74989V9.76162H14.7691C14.6492 8.98016 14.3409 8.26096 13.8934 7.65029L15.7213 5.82234L16.437 6.53786L17.0712 3.42878L13.9621 4.06313L14.6776 4.77832L12.8494 6.60643C12.2389 6.15893 11.5197 5.85071 10.7382 5.73082L10.738 3.14687H11.75L9.99992 0.5L8.24996 3.14687H9.26169V5.73082C8.48023 5.8509 7.76102 6.15893 7.15051 6.60659L5.32239 4.77865L6.03807 4.06297L2.92864 3.42894L3.563 6.53802L4.27852 5.82251L6.10664 7.65074C5.65898 8.26124 5.35091 8.98057 5.23103 9.7619H2.64689V8.74989L0 10.5L2.64689 12.2499V11.2382H5.23119C5.35111 12.0198 5.65931 12.739 6.10697 13.3495L4.27885 15.1775L3.56333 14.4618L2.92913 17.5709L6.03823 16.9365L5.32288 16.2215L7.151 14.3934C7.76151 14.8411 8.48068 15.1491 9.26235 15.2692L9.26203 17.8531H8.25001L10.0001 20.5L11.7501 17.8531H10.7385V15.2689C11.52 15.1489 12.2392 14.8407 12.8497 14.3931L14.6777 16.221L13.962 16.9365L17.0713 17.5707L16.4369 14.4618L15.7215 15.1771L13.8934 13.3492C14.3411 12.7387 14.6491 12.0194 14.7692 11.2379H17.3532V12.2499L20 10.4998ZM4.99121 10.9419V10.0576H7.87537V9.45212L9.45995 10.4997L7.87537 11.5476V10.9418L4.99121 10.9419ZM9.99988 14.7987L8.95199 13.2141H9.55783V10.6701H10.4416V10.33H9.55783V7.78592H8.95199L9.99988 6.20119L11.0475 7.78592H10.4416V10.33H10.442V13.2143H11.0475L9.99988 14.7987ZM15.009 10.9419H12.1248V11.5477L10.54 10.4998L12.1248 9.45225V10.0581H15.009V10.9419Z"
        fill="#EEE" />
</svg>