<svg width="20" height="15" viewBox="0 0 20 15" fill="none" xmlns="http://www.w3.org/2000/svg">
<path fill-rule="evenodd" clip-rule="evenodd" d="M13.2413 7.50014L19.6877 1.49882C19.7143 1.59636 19.7277 1.69712 19.7276 1.79833V13.2021C19.7277 13.3033 19.7143 13.4041 19.6877 13.5016L13.2413 7.50014ZM0.660588 14.2424C0.814243 14.3161 0.982576 14.3543 1.15305 14.3541H18.5754C18.7748 14.3541 18.9706 14.302 19.1435 14.2026L12.5931 8.10385L11.4047 9.20986C10.9971 9.58093 10.4629 9.78166 9.91185 9.77097C9.3581 9.76929 8.82466 9.56136 8.41565 9.18798L7.25245 8.10475L0.660588 14.2424ZM0.0667574 1.41349C0.0228777 1.53703 0.000556071 1.66714 0.00101401 1.79816V13.202C0.000555327 13.333 0.0228773 13.4631 0.0667574 13.5866L6.60429 7.49999L0.0667574 1.41349ZM18.5744 0.646272L1.15289 0.646425C0.982416 0.646272 0.814087 0.684495 0.660431 0.758189L7.55062 7.174L7.55352 7.1766L9.01759 8.53992C9.2642 8.76421 9.58527 8.88851 9.91859 8.88897C10.2441 8.89707 10.5604 8.78057 10.8028 8.56301L12.2931 7.17644L12.2953 7.1743L19.1436 0.797236C18.9707 0.698008 18.7748 0.645874 18.5754 0.645874L18.5744 0.646272Z" fill="#555555"/>
</svg>
