<svg width="33" height="30" viewBox="0 0 33 30" fill="none" xmlns="http://www.w3.org/2000/svg">
<path d="M9.40989 0C4.47151 0 0.466797 3.73167 0.466797 8.33333V21.6667C0.466797 26.2683 4.47151 30 9.40989 30H23.7188C28.6572 30 32.6619 26.2683 32.6619 21.6667V8.33333C32.6619 3.73167 28.6572 0 23.7188 0H9.40989ZM27.2961 3.33333C28.2834 3.33333 29.0847 4.08 29.0847 5C29.0847 5.92 28.2834 6.66667 27.2961 6.66667C26.3087 6.66667 25.5074 5.92 25.5074 5C25.5074 4.08 26.3087 3.33333 27.2961 3.33333ZM16.5644 6.66667C21.5027 6.66667 25.5074 10.3983 25.5074 15C25.5074 19.6017 21.5027 23.3333 16.5644 23.3333C11.626 23.3333 7.62127 19.6017 7.62127 15C7.62127 10.3983 11.626 6.66667 16.5644 6.66667ZM16.5644 10C15.1412 10 13.7764 10.5268 12.7701 11.4645C11.7638 12.4021 11.1985 13.6739 11.1985 15C11.1985 16.3261 11.7638 17.5979 12.7701 18.5355C13.7764 19.4732 15.1412 20 16.5644 20C17.9875 20 19.3523 19.4732 20.3586 18.5355C21.3649 17.5979 21.9302 16.3261 21.9302 15C21.9302 13.6739 21.3649 12.4021 20.3586 11.4645C19.3523 10.5268 17.9875 10 16.5644 10Z" fill="white"/>
</svg>
