<svg width="118" height="117" viewBox="0 0 118 117" fill="none" xmlns="http://www.w3.org/2000/svg">
<path d="M112.783 58.4687C115.386 58.4687 117.517 56.3545 117.307 53.7594C116.54 44.2918 113.47 35.1289 108.333 27.0825C102.349 17.708 93.8095 10.2396 83.7213 5.55766C73.6331 0.875738 62.4166 -0.824575 51.394 0.657141C40.3715 2.13886 30.0022 6.74084 21.5085 13.9206C13.0148 21.1005 6.7507 30.5588 3.45454 41.1809C0.158378 51.8029 -0.0324425 63.1459 2.90457 73.8728C5.84158 84.5997 11.784 94.2634 20.0314 101.725C27.1104 108.129 35.6342 112.682 44.842 115.014C47.3659 115.654 49.8053 113.905 50.2388 111.338C50.6722 108.77 48.9337 106.36 46.42 105.682C38.9829 103.674 32.1023 99.931 26.3569 94.7331C19.4425 88.4777 14.4606 80.376 11.9983 71.3829C9.53605 62.3899 9.69602 52.8803 12.4594 43.9752C15.2228 35.07 20.4744 27.1405 27.5952 21.1212C34.716 15.1019 43.4092 11.2438 52.6502 10.0016C61.8911 8.75934 71.2946 10.1848 79.7522 14.11C88.2098 18.0351 95.369 24.2964 100.386 32.1556C104.555 38.6862 107.1 46.094 107.841 53.7616C108.092 56.3531 110.179 58.4687 112.783 58.4687Z" fill="#F39D4A"/>
<path d="M91.102 58.8039C93.8301 58.8039 96.0759 56.5824 95.7083 53.8792C94.9974 48.6526 93.1603 43.6214 90.3011 39.1425C86.5524 33.2699 81.203 28.5915 74.8833 25.6585C68.5637 22.7256 61.5373 21.6605 54.6324 22.5887C47.7274 23.5169 41.2317 26.3997 35.911 30.8974C30.5902 35.3951 26.6661 41.3202 24.6013 47.9742C22.5364 54.6283 22.4169 61.7339 24.2568 68.4536C26.0966 75.1734 29.8192 81.2271 34.9856 85.9012C38.9261 89.4661 43.5812 92.1152 48.6165 93.6864C51.2208 94.4989 53.7852 92.6543 54.2394 89.9643C54.6935 87.2743 52.8551 84.768 50.2948 83.826C47.1058 82.6528 44.1558 80.8752 41.6135 78.5752C37.8438 75.1648 35.1277 70.7477 33.7853 65.8448C32.4428 60.9418 32.53 55.7572 34.0366 50.9021C35.5432 46.0471 38.4064 41.7239 42.2886 38.4422C46.1709 35.1605 50.9104 33.057 55.9485 32.3798C60.9867 31.7025 66.1134 32.4797 70.7245 34.6197C75.3355 36.7597 79.2387 40.1733 81.9739 44.4581C83.8186 47.3479 85.0802 50.5526 85.7062 53.8925C86.2087 56.5738 88.374 58.8039 91.102 58.8039Z" fill="#42813B"/>
<ellipse cx="59.5007" cy="58.8039" rx="10.3924" ry="10.3924" fill="#0392D6"/>
<path d="M73.4231 108.605L63.3793 64.3662C63.2616 63.8475 63.7657 63.4048 64.2648 63.5885L105.322 78.6999C105.952 78.9318 105.888 79.8433 105.232 79.9846L83.613 84.6383C83.386 84.6872 83.2004 84.85 83.1225 85.0687L74.7085 108.682C74.4833 109.314 73.5717 109.26 73.4231 108.605Z" stroke="#B7B7B7" stroke-width="4.69334"/>
</svg>
