<svg width="32" height="28" viewBox="0 0 32 28" fill="none" xmlns="http://www.w3.org/2000/svg">
<path d="M31.4701 0.829102C30.243 1.59131 27.781 2.63009 26.3337 2.9297C26.2912 2.94123 26.2566 2.95604 26.2157 2.96757C24.9367 1.64728 23.1842 0.829102 21.2445 0.829102C17.3351 0.829102 14.1652 4.14627 14.1652 8.23717C14.1652 8.45283 14.1479 8.84958 14.1652 9.06029C8.89035 9.06029 4.87562 6.1695 1.99671 2.47534C1.68365 3.29846 1.54679 4.59899 1.54679 5.8205C1.54679 8.12688 3.26941 10.3921 5.95166 11.7963C5.45769 11.9297 4.91337 12.0252 4.34703 12.0252C3.43302 12.0252 2.46552 11.7733 1.57982 11.0094C1.57982 11.0374 1.57982 11.0638 1.57982 11.0934C1.57982 14.3167 4.84887 16.5112 7.75609 17.1219C7.16615 17.4857 5.97684 17.522 5.39634 17.522C4.98731 17.522 3.53999 17.3261 3.15299 17.2503C3.9616 19.8925 6.87826 21.3775 9.65806 21.4301C7.48393 23.2147 5.97526 23.8764 1.52319 23.8764H0.00665283C2.81948 25.763 6.40159 27.1706 9.99157 27.1706C21.6802 27.1706 28.3237 17.8479 28.3237 9.06029C28.3237 8.91872 28.3206 8.62239 28.3159 8.32443C28.3159 8.29479 28.3237 8.26681 28.3237 8.23717C28.3237 8.19273 28.3111 8.14992 28.3111 8.10548C28.3064 7.88159 28.3017 7.67252 28.297 7.56386C29.5398 6.62551 30.6174 5.45503 31.4701 4.12158C30.3295 4.65167 29.1056 5.00726 27.8203 5.16859C29.1323 4.34547 30.9965 2.38315 31.4701 0.829102Z" fill="white"/>
</svg>
