<svg width="31" height="32" viewBox="0 0 31 32" fill="none" xmlns="http://www.w3.org/2000/svg">
<path d="M26.3256 24.2098C24.6641 22.4194 23.885 20.1453 23.885 18.3067L23.781 13.8066C23.781 9.6935 20.8214 5.91962 16.6154 4.66137C16.5114 3.11306 15.2133 2 13.5 2C11.8385 2 10.5404 3.11298 10.3846 4.66137C6.17892 5.96791 3.21902 9.69366 3.21902 13.8066L3.11536 18.3067C3.11536 20.1937 2.3366 22.4198 0.674771 24.2098C0.36346 24.5485 0 25.0324 0 25.7099C0 27.2582 0.726926 28.1291 2.59605 28.1291H10.3846V29.0969C10.3846 30.6938 11.7867 32 13.5 32C15.2137 32 16.6154 30.6935 16.6154 29.0969V28.1291H24.4039C26.2731 28.1291 27 27.2582 27 25.7099C27.0007 25.0324 26.6372 24.5485 26.3256 24.2098ZM14.5391 29.0969C14.5391 29.6774 13.9679 30.0647 13.5005 30.0647C13.0331 30.0647 12.462 29.6777 12.462 29.0969V28.1291H14.5391L14.5391 29.0969ZM24.4045 26.1938H2.59565C1.92056 26.1938 1.97271 25.6616 2.28402 25.4681C4.62062 23.3875 5.19176 20.0971 5.19176 18.3553L5.29575 13.8552C5.29575 10.4195 8.04769 7.17771 11.6826 6.3551C12.1501 6.2582 12.4614 5.87119 12.4614 5.43591V4.952C12.4614 4.3715 12.8767 3.98421 13.4999 3.98421C14.1228 3.98421 14.5384 4.37122 14.5384 4.952V5.43591C14.5384 5.87153 14.8501 6.25852 15.3172 6.3551C18.9519 7.17771 21.7041 10.4196 21.7041 13.8552L21.8081 18.3553C21.8081 20.097 22.431 23.3875 24.7158 25.4681C25.0271 25.6616 25.0789 26.1938 24.4042 26.1938H24.4045Z" fill="black"/>
<circle cx="23.5" cy="7.5" r="7.5" fill="#FF731D"/>
</svg>
