<svg width="18" height="17" viewBox="0 0 18 17" fill="none" xmlns="http://www.w3.org/2000/svg">
<path fill-rule="evenodd" clip-rule="evenodd" d="M13.7037 10.8755C14.7457 11.4545 15.7883 12.0337 16.8303 12.6128C17.2788 12.8618 17.4755 13.3902 17.299 13.8721C16.4025 16.3213 13.7768 17.6141 11.3063 16.7124C6.24741 14.8659 2.49758 11.1159 0.650897 6.05703C-0.250829 3.58652 1.042 0.960822 3.49117 0.064348C3.9731 -0.112227 4.50151 0.0845076 4.75115 0.533016C5.32962 1.57503 5.90879 2.61764 6.48784 3.65959C6.75928 4.14842 6.69549 4.72865 6.32396 5.14608C5.83741 5.69358 5.35095 6.24097 4.8644 6.7879C5.90298 9.317 8.04623 11.4603 10.5754 12.4989C11.1223 12.0123 11.6697 11.5259 12.2172 11.0393C12.6352 10.6678 13.215 10.604 13.7037 10.8754L13.7037 10.8755Z" fill="#555555"/>
</svg>
