<svg width="20" height="21" viewBox="0 0 20 21" fill="none" xmlns="http://www.w3.org/2000/svg">
    <path fill-rule="evenodd" clip-rule="evenodd"
        d="M10.8421 3.57276V2.17389C10.8421 2.05915 10.7382 1.96567 10.6111 1.96567L9.17157 1.96551C8.98764 1.96551 8.83833 1.83104 8.83833 1.66505C8.83833 1.34348 8.69384 1.05218 8.45997 0.84114C8.22626 0.63043 7.90318 0.5 7.54651 0.5C7.18984 0.5 6.86658 0.630275 6.63269 0.84114C6.39899 1.05185 6.25433 1.34315 6.25433 1.66505C6.25433 1.83104 6.10519 1.96551 5.92109 1.96551H4.4817C4.35443 1.96551 4.25076 2.05915 4.25076 2.17374V3.5726L10.8421 3.57276ZM3.58431 3.57276H1.18892C1.00499 3.57276 0.855678 3.70723 0.855678 3.87322V19.4269C0.855678 19.5927 1.00482 19.7273 1.18892 19.7273H8.57631V20.5H0.427962C0.192713 20.5 0 20.325 0 20.1131V3.18721C0 2.9751 0.192713 2.80135 0.427962 2.80135H3.5844L3.58431 3.57276ZM4.20207 8.9069H3.54626V9.4982H4.20207V8.9069ZM3.213 8.30615C3.02907 8.30615 2.87976 8.44062 2.87976 8.60661V9.79866C2.87976 9.96465 3.0289 10.0991 3.213 10.0991H4.53511C4.71904 10.0991 4.86836 9.96465 4.86836 9.79866V8.60661C4.86836 8.44078 4.71922 8.30615 4.53511 8.30615H3.213ZM4.20207 11.3544H3.54626V11.9457H4.20207V11.3544ZM3.213 10.7536C3.02907 10.7536 2.87976 10.8881 2.87976 11.0541V12.2461C2.87976 12.412 3.0289 12.5466 3.213 12.5466H4.53511C4.71904 12.5466 4.86836 12.4121 4.86836 12.2461V11.0541C4.86836 10.8883 4.71922 10.7536 4.53511 10.7536H3.213ZM4.20207 13.802H3.54626V14.3933H4.20207V13.802ZM3.213 13.2011C3.02907 13.2011 2.87976 13.3356 2.87976 13.5016V14.6936C2.87976 14.8595 3.0289 14.9941 3.213 14.9941H4.53511C4.71904 14.9941 4.86836 14.8596 4.86836 14.6936V13.5016C4.86836 13.3358 4.71922 13.2011 4.53511 13.2011H3.213ZM4.20207 16.2495H3.54626V16.8408H4.20207V16.2495ZM3.213 15.6486C3.02907 15.6486 2.87976 15.7831 2.87976 15.9491V17.1411C2.87976 17.307 3.0289 17.4416 3.213 17.4416H4.53511C4.71904 17.4416 4.86836 17.3071 4.86836 17.1411V15.9491C4.86836 15.7832 4.71922 15.6486 4.53511 15.6486H3.213ZM4.20207 6.45945H3.54626V7.05075H4.20207V6.45945ZM3.213 5.8587C3.02907 5.8587 2.87976 5.99317 2.87976 6.15916V7.35121C2.87976 7.51704 3.0289 7.65166 3.213 7.65166H4.53511C4.71904 7.65166 4.86836 7.5172 4.86836 7.35121V6.15916C4.86836 5.99333 4.71922 5.8587 4.53511 5.8587H3.213ZM15.093 10.1995V3.18746C15.093 2.97535 14.9002 2.8016 14.665 2.8016L11.5087 2.80144V3.57284H13.9041C14.0882 3.57284 14.2374 3.70731 14.2374 3.8733V10.1992L15.093 10.1995ZM15.7581 10.8002V12.1757C15.7581 12.3516 15.6224 12.5024 15.426 12.5024H13.9041C13.7202 12.5024 13.5709 12.3679 13.5709 12.2019V10.7999H12.1912C12.1403 10.7999 12.0989 10.8372 12.0989 10.8831V15.2657C12.0989 15.3116 12.1402 15.3489 12.1912 15.3489H17.0519C17.1029 15.3489 17.1442 15.3116 17.1442 15.2657V10.8835C17.1442 10.8376 17.1029 10.8003 17.0519 10.8003L15.7581 10.8002ZM14.2374 10.8002H15.0944V11.9016H14.2374V10.8002ZM18.5704 15.9499V17.3254C18.5704 17.5013 18.4347 17.6521 18.2384 17.6521H16.7163C16.5324 17.6521 16.3831 17.5176 16.3831 17.3518V15.9498H15.047C14.996 15.9498 14.9547 15.987 14.9547 16.033V20.4163C14.9547 20.4623 14.996 20.4995 15.047 20.4995H19.9077C19.9587 20.4995 20 20.4623 20 20.4163V16.0334C20 15.9874 19.9587 15.9502 19.9077 15.9502H18.5706L18.5704 15.9499ZM17.0494 15.9499H17.9063V17.0513L17.0494 17.0515V15.9499ZM12.8586 15.9499V17.3254C12.8586 17.5013 12.7229 17.6521 12.5269 17.6521H11.0048C10.8209 17.6521 10.6718 17.5176 10.6718 17.3518V15.9498H9.33568C9.2847 15.9498 9.24337 15.987 9.24337 16.033V20.4163C9.24337 20.4623 9.2847 20.4995 9.33568 20.4995H14.1964C14.2474 20.4995 14.2887 20.4623 14.2887 20.4163V16.0334C14.2887 15.9874 14.2474 15.9502 14.1964 15.9502H12.8588L12.8586 15.9499ZM11.3377 15.9499H12.1947V17.0513H11.3377V15.9499ZM5.74956 9.5934H11.88C12.0639 9.5934 12.2132 9.45893 12.2132 9.29294C12.2132 9.12695 12.0641 8.99248 11.88 8.99248L5.74956 8.99232C5.56546 8.99232 5.41632 9.12679 5.41632 9.29278C5.41632 9.45893 5.56563 9.5934 5.74956 9.5934ZM5.74956 7.14595H11.88C12.0639 7.14595 12.2132 7.01148 12.2132 6.84549C12.2132 6.67965 12.0641 6.54503 11.88 6.54503L5.74956 6.54487C5.56546 6.54487 5.41632 6.67934 5.41632 6.84533C5.41649 7.01148 5.56563 7.14595 5.74956 7.14595ZM5.74956 16.8459C5.56546 16.8459 5.41632 16.7114 5.41632 16.5455C5.41632 16.3795 5.56546 16.245 5.74956 16.245H8.57653V15.5579C8.57653 15.4432 8.68038 15.3497 8.80748 15.3497H11.4323V14.3984H5.74975C5.56565 14.3984 5.41651 14.264 5.41651 14.098C5.41651 13.9321 5.56565 13.7975 5.74975 13.7975H11.4327V11.9508L5.74975 11.9507C5.56565 11.9507 5.41651 11.8162 5.41651 11.6502C5.41651 11.4844 5.56565 11.3498 5.74975 11.3498H11.4327V10.4996C11.4327 10.3338 11.5818 10.1991 11.7658 10.1991H13.5711V4.17413H1.52232V19.1267H8.5764V16.8457L5.74956 16.8459ZM7.54686 1.27954C7.78348 1.27954 7.97534 1.45252 7.97534 1.66587C7.97534 1.87922 7.78348 2.0522 7.54686 2.0522C7.31023 2.0522 7.11837 1.87922 7.11837 1.66587C7.11837 1.45252 7.31023 1.27954 7.54686 1.27954Z"
        fill="#EEE" />
</svg>