<svg width="20" height="21" viewBox="0 0 20 21" fill="none" xmlns="http://www.w3.org/2000/svg">
    <path
        d="M3.85741 14.4788C3.42858 14.4732 2.99793 14.4741 2.56576 14.4788C2.26943 14.4816 2.12514 14.6411 2.12431 14.9649C2.12178 15.4669 2.12178 15.9687 2.12262 16.4707L2.12347 17.1172L2.12262 17.8065C2.12178 18.4336 2.12178 19.1972 2.12347 19.7575H4.30564C4.30901 18.3223 4.30816 16.2897 4.30479 14.9704C4.30311 14.6569 4.14532 14.4825 3.85741 14.4788Z"
        fill="#EEE" />
    <path
        d="M12.8387 8.60785H11.7661C11.2374 8.60878 11.151 8.7043 11.151 9.28687L11.1484 13.3169L11.1535 14.6602L11.1527 16.3004C11.1518 17.4527 11.1527 18.605 11.1543 19.7572H13.3541L13.3549 16.7207L13.3524 9.18862C13.3522 8.7814 13.1987 8.60793 12.8387 8.60793L12.8387 8.60785Z"
        fill="#EEE" />
    <path
        d="M12.737 3.49514C12.9913 3.4942 13.1314 3.65014 13.369 3.89679C13.4127 3.94229 13.4378 3.96264 13.452 3.97196C13.447 3.95441 13.452 3.91449 13.4554 3.88483L13.4822 3.23269L13.5528 1.31134C13.076 1.31414 12.6422 1.38744 12.2092 1.45982L11.1089 1.64262C11.1794 1.71966 11.2466 1.78737 11.3136 1.85509C11.3824 1.92467 11.4513 1.99425 11.5225 2.05917C11.7709 2.28546 11.8003 2.59903 11.5981 2.87659C11.484 3.0333 11.3732 3.19296 11.2624 3.35339C11.1181 3.5612 10.9745 3.769 10.8243 3.9703C9.42604 5.84056 7.65273 7.58752 5.40164 9.30964C5.29669 9.38947 5.19187 9.46914 5.08691 9.54804C7.7843 8.1805 10.147 6.30094 12.1361 3.93794C12.3569 3.67624 12.5021 3.50368 12.7371 3.4953L12.737 3.49514Z"
        fill="#EEE" />
    <path
        d="M8.38602 11.9385C7.97562 11.9311 7.56266 11.9339 7.14973 11.9376C6.73861 11.9404 6.64379 12.0462 6.64379 12.5006C6.64126 13.3829 6.64126 14.2651 6.64211 15.1474L6.64295 16.2829L6.64211 17.3822C6.64126 18.1735 6.64211 18.9657 6.64463 19.7581H8.83018C8.83187 17.3247 8.83187 14.8597 8.83103 12.4292C8.83004 12.1037 8.68406 11.944 8.38605 11.9386L8.38602 11.9385Z"
        fill="#EEE" />
    <path
        d="M2.05858 10.828L2.78458 10.316C3.53655 9.78713 4.28769 9.25924 5.02041 8.69886C7.24952 6.99182 8.92988 5.33869 10.3071 3.4963C10.4531 3.30247 10.5917 3.10103 10.731 2.9007C10.8174 2.77645 10.9032 2.65298 10.9912 2.53059C10.9467 2.48788 10.904 2.44424 10.8628 2.40168C10.8024 2.34049 10.7412 2.2793 10.679 2.22074C10.4625 2.01853 10.3802 1.74021 10.4465 1.43688C10.4843 1.26619 10.6077 0.973879 11.013 0.908037L12.1108 0.725233C12.5455 0.651924 12.9794 0.57955 13.4151 0.50997C13.6485 0.473782 13.8524 0.536839 14.0009 0.687179C14.157 0.842179 14.2359 1.07499 14.2258 1.34306L14.1386 3.74868C14.1369 3.84326 14.1352 3.8925 14.1284 3.94064C14.1016 4.16429 14.0562 4.54094 13.6819 4.67914C13.2782 4.82576 13.013 4.54371 12.9114 4.43701C12.8636 4.38778 12.809 4.33124 12.7646 4.2876C12.7234 4.33311 12.6748 4.39151 12.6311 4.44354C9.91766 7.66825 6.52967 10.0163 2.563 11.4238L2.44301 11.4637C2.40775 11.4749 2.3708 11.4804 2.3323 11.4804C2.19292 11.4804 2.04356 11.409 1.98989 11.2782C1.91936 11.1091 1.91851 10.9283 2.0586 10.8282L2.05858 10.828ZM19.6658 20.4996H0.335663C0.150199 20.4996 0 20.3336 0 20.1286C0 19.9235 0.151041 19.7575 0.335663 19.7575H1.45196C1.45028 19.1962 1.45112 18.4336 1.45196 17.8065V16.4724C1.45112 15.9695 1.45112 15.4658 1.4528 14.962C1.45702 14.2365 1.90101 13.7439 2.55982 13.7373C2.99624 13.7336 3.43178 13.7317 3.86651 13.7373C4.51772 13.7457 4.97439 14.2522 4.97691 14.9685C4.98112 16.2896 4.98112 18.3214 4.97775 19.7584H5.97139C5.96971 18.9661 5.96886 18.1738 5.96971 17.3815V15.1484C5.96886 14.2651 5.96886 13.382 5.97055 12.4997C5.97308 11.6416 6.36747 11.2027 7.14307 11.1953C7.55768 11.1906 7.97654 11.1887 8.39608 11.1962C9.05576 11.2083 9.4989 11.7027 9.50059 12.4274C9.50143 14.858 9.50227 17.323 9.49974 19.7575H10.4809C10.48 18.6052 10.4792 17.4529 10.48 16.3007L10.4775 9.2851C10.4792 8.2925 10.8636 7.86758 11.7632 7.86476H12.8375C13.5686 7.86476 14.0225 8.37122 14.0225 9.18677L14.0242 19.7565H14.9794L14.9802 16.2154C14.9811 12.0406 14.9827 6.00194 14.9718 4.16424C14.9701 3.70963 15.1053 3.31716 15.3537 3.06123C15.5199 2.88961 15.8253 2.69655 16.3021 2.73274C16.5312 2.75123 16.7636 2.74579 16.9945 2.74113L17.3235 2.7374C18.0873 2.7374 18.5446 3.24295 18.5472 4.09094C18.5506 5.58364 18.5497 15.7413 18.548 19.7567H19.6643C19.8498 19.7567 20 19.9227 20 20.1277C19.9999 20.3329 19.8513 20.5 19.6659 20.5L19.6658 20.4996Z"
        fill="#EEE" />
    <path
        d="M17.3251 3.47963L17.0079 3.48429C16.7552 3.48802 16.5018 3.49268 16.255 3.47311C16.0611 3.46099 15.9135 3.50091 15.8144 3.60388C15.7044 3.71803 15.6448 3.91559 15.6465 4.16052C15.6566 5.99833 15.6549 12.0389 15.6541 16.2161V19.7562H17.879C17.8807 15.7409 17.8815 5.58507 17.8781 4.09249C17.8757 3.6576 17.7163 3.47947 17.3251 3.47947L17.3251 3.47963Z"
        fill="#EEE" />
</svg>