<svg width="18" height="18" viewBox="0 0 18 18" fill="none" xmlns="http://www.w3.org/2000/svg">
<path d="M6.4979 7.11573C6.38727 7.11573 6.29785 7.02616 6.29785 6.91567C6.29785 5.63666 6.79562 4.43422 7.70003 3.52989C8.604 2.62574 9.80572 2.12781 11.0837 2.12781C11.1943 2.12781 11.2838 2.21737 11.2838 2.32787C11.2838 2.43822 11.1943 2.52793 11.0837 2.52793C9.91272 2.52793 8.8116 2.98425 7.98281 3.81294C7.15429 4.64176 6.69784 5.74374 6.69784 6.91592C6.69784 7.02613 6.60839 7.11573 6.4979 7.11573Z" fill="#777777"/>
<path d="M15.9736 2.02559C18.6755 4.72568 18.6755 9.1035 15.9736 11.8039C14.6236 13.1559 12.8537 13.8299 11.0837 13.8299C9.55373 13.8299 8.02574 13.3239 6.76595 12.3138L6.00801 13.0718C6.07204 13.4739 5.95402 13.8998 5.64406 14.2078L2.23608 17.6159C1.98009 17.8719 1.6461 18 1.31003 18C0.974108 18 0.639982 17.8719 0.383989 17.6159C-0.127996 17.1039 -0.127996 16.274 0.383989 15.7639L3.79197 12.3558C4.09999 12.0459 4.52591 11.9278 4.92797 11.9919L5.68591 11.2339C3.50797 8.51793 3.67801 4.54386 6.19594 2.02598C7.54593 0.676077 9.31581 0 11.0837 0C12.8536 0 14.6236 0.676077 15.9735 2.02598L15.9736 2.02559ZM16.4714 6.91563C16.4714 5.47561 15.9115 4.1236 14.8935 3.1056C13.8755 2.08759 12.5236 1.52758 11.0836 1.52758C9.64555 1.52758 8.29363 2.08759 7.27583 3.1056C6.25786 4.1236 5.69788 5.47558 5.69788 6.91563C5.69788 8.35371 6.25786 9.70568 7.27583 10.7235C8.29381 11.7415 9.64573 12.3015 11.0836 12.3015C12.5235 12.3015 13.8755 11.7415 14.8935 10.7235C15.9115 9.70551 16.4714 8.35339 16.4714 6.91563Z" fill="#777777"/>
</svg>
