<svg width="114" height="24" viewBox="0 0 114 24" fill="none" xmlns="http://www.w3.org/2000/svg">
<path d="M11.7208 2L14.1815 9.33347L21.4408 9.6004L15.7805 14.5335L17.6266 22L11.7208 17.5999L5.69139 22L7.66031 14.5335L2 9.6004L9.13657 9.33347L11.7208 2Z" fill="#FF731D" stroke="#FF731D" stroke-width="1.18073" stroke-miterlimit="10"/>
<path d="M34.3615 2L36.8222 9.33347L44.0814 9.6004L38.422 14.5335L40.39 22L34.3615 17.5999L28.332 22L30.3009 14.5335L24.6406 9.6004L31.9007 9.33347L34.3615 2Z" fill="#FF731D" stroke="#FF731D" stroke-width="1.18073" stroke-miterlimit="10"/>
<path d="M57.0012 2L59.4619 9.33347L66.7212 9.6004L61.0617 14.5335L63.0307 22L57.0012 17.5999L50.9718 22L52.9407 14.5335L47.2812 9.6004L54.5405 9.33347L57.0012 2Z" fill="#FF731D" stroke="#FF731D" stroke-width="1.18073" stroke-miterlimit="10"/>
<path d="M79.6379 2L82.0987 9.33347L89.3588 9.6004L83.6985 14.5335L85.6674 22L79.6379 17.5999L73.6094 22L75.5774 14.5335L69.918 9.6004L77.1772 9.33347L79.6379 2Z" fill="#FF731D" stroke="#FF731D" stroke-width="1.18073" stroke-miterlimit="10"/>
<path d="M102.279 2L104.863 9.33347L111.999 9.6004L106.339 14.5335L108.308 22L102.279 17.5999L96.3728 22L98.2189 14.5335L92.5586 9.6004L99.8178 9.33347L102.279 2Z" stroke="#FF731D" stroke-width="1.18073" stroke-miterlimit="10"/>
</svg>
