<svg width="29" height="29" viewBox="0 0 29 29" fill="none" xmlns="http://www.w3.org/2000/svg">
    <path
        d="M28.8436 22.1879C28.7271 22.0263 28.5132 21.9486 28.308 21.9932C24.8919 22.7436 21.2951 22.3234 18.1919 20.8114C15.0886 19.2996 12.6919 16.8 11.4506 13.781C10.2096 10.762 10.2091 7.43063 11.4497 4.41146C11.9146 3.29026 12.5415 2.23179 13.3132 1.26394C13.4367 1.10749 13.4414 0.896989 13.3248 0.736042C13.2082 0.575095 12.9952 0.497787 12.7903 0.541982C9.55138 1.25102 6.64853 2.90316 4.51507 5.25203C2.38161 7.60069 1.13155 10.5204 0.951423 13.5749C0.771325 16.6299 1.67081 19.6564 3.51544 22.2029C5.36029 24.7498 8.05172 26.6805 11.1881 27.7071C14.3246 28.7338 17.7383 28.8012 20.9199 27.8993C24.1015 26.9977 26.8806 25.1751 28.8434 22.7035C28.9573 22.5477 28.9575 22.3437 28.8436 22.1879ZM11.1881 26.4077C8.40161 25.4469 6.72311 23.9602 5.04744 21.6999C3.37194 19.4397 2.40548 17.2641 2.4525 14.5297C2.49948 11.7952 3.52125 9.01856 5.27366 6.80773C7.02614 4.59743 8.01458 3.50907 10.8328 2.62969C9.27524 5.01492 9.17601 6.85076 9.30912 9.62969C9.44201 12.4086 10.071 14.5297 11.5947 17.3297C13.3739 19.5801 16.1514 21.7285 18.9869 22.7035C21.4228 23.549 23.2663 23.9525 25.8435 23.6077C23.904 25.6184 22.5864 26.1067 19.7487 26.7557C16.9112 27.4049 13.9275 27.3482 11.1881 26.4077Z"
        fill="black" />
</svg>