<svg width="20" height="21" viewBox="0 0 20 21" fill="none" xmlns="http://www.w3.org/2000/svg">
<path d="M13.9475 10.1989H6.63184L8.44312 13.6101H15.7588L13.9475 10.1989Z" fill="#DDDDDD"/>
<path d="M0 13.6104H4.17991L5.98793 10.1992H1.81143L0 13.6104Z" fill="#DDDDDD"/>
<path d="M19.9843 17.8217L19.9585 17.576H14.5928V20.4998H18.0668C19.2334 20.4998 20.1325 19.24 19.9843 17.8217Z" fill="#DDDDDD"/>
<path d="M9.43965 7.52851C11.0187 7.52851 12.2982 5.95568 12.2982 4.01426C12.2982 2.07302 11.0189 0.5 9.43965 0.5C7.86059 0.5 6.58105 2.07283 6.58105 4.01426C6.58105 5.95568 7.86044 7.52851 9.43965 7.52851ZM7.8315 3.61811H9.12053V2.03342C9.12053 1.81545 9.26548 1.63725 9.44278 1.63725C9.62008 1.63725 9.76503 1.81545 9.76503 2.03342V3.61811H11.0541C11.2314 3.61811 11.3763 3.79631 11.3763 4.01427C11.3763 4.23224 11.2314 4.41044 11.0541 4.41044H9.76503V5.99513C9.76503 6.2131 9.62008 6.3913 9.44278 6.3913C9.26548 6.3913 9.12053 6.2131 9.12053 5.99513V4.41044H7.8315C7.6542 4.41044 7.50924 4.23224 7.50924 4.01427C7.50924 3.79649 7.65093 3.61811 7.8315 3.61811Z" fill="#DDDDDD"/>
<path d="M11.4856 8.4437L11.3857 9.40638H13.5836V7.29877C13.5836 6.17355 14.3282 5.25448 15.2465 5.25448C16.1618 5.25448 16.9094 6.16977 16.9094 7.29877V8.4437H14.2281V9.40638H14.299L16.9481 14.4021H14.5924V16.7831H19.8776L19.0074 8.44319H18.1985V10.1982C18.1985 10.2338 18.1888 10.2655 18.1823 10.2973C18.3822 10.432 18.5207 10.6894 18.5207 10.9906C18.5207 11.4303 18.2307 11.7829 17.8762 11.7829C17.5185 11.7829 17.2317 11.4303 17.2317 10.9906C17.2317 10.6894 17.367 10.4319 17.5701 10.2973C17.5638 10.2655 17.554 10.2338 17.554 10.1982V7.29831C17.554 5.73332 16.5194 4.46167 15.2466 4.46167C13.9736 4.46167 12.9392 5.73351 12.9392 7.29831V8.44324L11.4856 8.4437Z" fill="#DDDDDD"/>
<path d="M6.63184 11.6492V20.5H13.9475V14.4027H8.09528L6.63184 11.6492Z" fill="#DDDDDD"/>
<path d="M1.81152 14.4023V20.4995H5.98802V11.6488L4.52807 14.4022L1.81152 14.4023Z" fill="#DDDDDD"/>
</svg>
